<svg width="35" height="35" viewBox="0 0 35 35" fill="none" xmlns="http://www.w3.org/2000/svg">
<path d="M17.2775 0V1.22656C26.0072 1.22656 33.2015 8.34677 33.3177 17.0983C33.434 25.9664 26.3376 33.2767 17.4916 33.3993H17.2713C8.54157 33.3993 1.34732 26.2791 1.23108 17.5276C1.17603 13.2285 2.79106 9.16856 5.77643 6.08989C8.76181 3.01735 12.7688 1.28789 17.0572 1.2327H17.2775V0ZM17.2775 0C17.1979 0 17.1184 0 17.0389 0C7.50159 0.134922 -0.120899 7.98493 0.00145255 17.546C0.129921 27.0273 7.83194 34.6259 17.2652 34.6259C17.3448 34.6259 17.4243 34.6259 17.5038 34.6259C27.0411 34.4971 34.6697 26.641 34.5412 17.086C34.4128 7.6047 26.7046 0 17.2775 0Z" fill="#2B388B"/>
<path d="M34.009 17.2762L19.8897 19.9317L17.3081 34.0923L14.6653 19.9439L0.533684 17.3559L14.653 14.7004L17.2346 0.539688L19.8835 14.6881L34.009 17.2762Z" fill="#2B388B"/>
<path d="M28.1729 17.2884L18.9781 19.0179L17.2958 28.2478L15.5707 19.024L6.36984 17.3375L15.5645 15.6142L17.2469 6.38426L18.972 15.6019L28.1729 17.2884Z" fill="#EB2227"/>
<path d="M20.9725 17.3068L17.8525 17.8956L17.2775 21.0294L16.6963 17.8956L13.5702 17.3252L16.6902 16.7365L17.2652 13.6026L17.8464 16.7365L20.9725 17.3068Z" fill="#FCEE1F"/>
</svg>
